<svg viewBox="0 0 48 48" xmlns="http://www.w3.org/2000/svg" xmlns:xlink="http://www.w3.org/1999/xlink" width="48.000000" height="48.000000" fill="none" customFrame="#000000">
	<defs>
		<filter id="pixso_custom_mask_type_outline">
			<feColorMatrix type="matrix" values="0 0 0 0 1 0 0 0 0 1 0 0 0 0 1 0 0 0 1 0 " />
		</filter>
	</defs>
	<mask id="mask_2" width="48.000000" height="48.000000" x="0.000000" y="0.000000" maskUnits="userSpaceOnUse">
		<g filter="url(#pixso_custom_mask_type_outline)">
			<g id="clip0_194_2801">
				<path id="Vector" d="M48 0L0 0L0 48L48 48L48 0Z" fill="rgb(255,255,255)" fill-rule="evenodd" />
			</g>
		</g>
	</mask>
	<g id="Clip path group" mask="url(#mask_2)">
		<g id="Group">
			<path id="Vector" d="M23.9997 5.57306e-08C20.3099 -0.000251373 16.6698 0.85024 13.3622 2.48538C10.0546 4.12054 7.16846 6.49631 4.92819 9.42809C2.68792 12.3599 1.15379 15.7687 0.44501 19.3897C-0.263766 23.0107 -0.128103 26.7465 0.841459 30.3065C1.81102 33.8666 3.58837 37.1552 6.0354 39.9168C8.48243 42.6783 11.5332 44.8385 14.9508 46.2294C18.3683 47.6203 22.0605 48.2046 25.7405 47.9367C29.4205 47.6688 32.9892 46.556 36.1693 44.6848L43.2245 46.6048C43.6928 46.733 44.1866 46.735 44.6558 46.6106C45.1251 46.4863 45.5531 46.2399 45.8963 45.8967C46.2396 45.5534 46.4859 45.1254 46.6104 44.6561C46.7347 44.1869 46.7326 43.693 46.6045 43.2248L44.6845 36.1696C46.8291 32.5242 47.9723 28.3768 47.9982 24.1474C48.0243 19.9181 46.9322 15.757 44.8325 12.0855C42.7329 8.41406 39.7002 5.36265 36.0418 3.24033C32.3834 1.11802 28.2291 0.000170341 23.9997 5.57306e-08ZM43.0509 36.2608L45.0613 43.6472C45.1147 43.8431 45.1153 44.0497 45.063 44.2459C45.0108 44.4422 44.9076 44.621 44.764 44.7645C44.6202 44.908 44.4411 45.0109 44.2448 45.0627C44.0485 45.1146 43.8419 45.1137 43.6461 45.06L36.2597 43.0496C36.1547 43.0208 36.045 43.0138 35.9372 43.0293C35.8294 43.0447 35.726 43.0821 35.6333 43.1392C30.9523 45.9846 25.3908 47.0159 20.0009 46.0383C14.6108 45.0607 9.76587 42.1418 6.38227 37.8338C2.99868 33.5257 1.31101 28.1272 1.63844 22.659C1.96587 17.1909 4.2857 12.0322 8.1592 8.15871C12.0328 4.28521 17.1914 1.96538 22.6595 1.63795C28.1276 1.31053 33.5262 2.99819 37.8344 6.38178C42.1423 9.76538 45.0612 14.6103 46.0388 20.0003C47.0164 25.3904 45.985 30.9518 43.1397 35.6328C43.0828 35.7259 43.0457 35.8296 43.0303 35.9376C43.0151 36.0456 43.0221 36.1557 43.0509 36.2608Z" fill="rgb(0,0,0)" fill-rule="nonzero" />
			<path id="Vector" d="M16.8002 28.7997C17.0123 28.7997 17.2159 28.7155 17.3659 28.5654C17.5159 28.4154 17.6002 28.2119 17.6002 27.9997C17.6002 27.7876 17.5159 27.584 17.3659 27.434C17.2159 27.284 17.0123 27.1997 16.8002 27.1997L13.2346 27.1997C13.6431 26.8739 14.0809 26.5868 14.5426 26.3421C15.905 25.5549 17.6002 24.5765 17.6002 22.3997C17.6002 21.551 17.2631 20.7371 16.663 20.137C16.0628 19.5368 15.2489 19.1997 14.4002 19.1997C13.5515 19.1997 12.7376 19.5368 12.1375 20.137C11.5373 20.7371 11.2002 21.551 11.2002 22.3997C11.2002 22.6119 11.2845 22.8154 11.4345 22.9654C11.5845 23.1155 11.788 23.1997 12.0002 23.1997C12.2123 23.1997 12.4159 23.1155 12.5659 22.9654C12.7159 22.8154 12.8002 22.6119 12.8002 22.3997C12.8002 21.9754 12.9688 21.5684 13.2688 21.2684C13.5689 20.9683 13.9759 20.7997 14.4002 20.7997C14.8246 20.7997 15.2315 20.9683 15.5315 21.2684C15.8316 21.5684 16.0002 21.9754 16.0002 22.3997C16.0002 23.5685 15.1474 24.1453 13.7426 24.9597C12.5506 25.6445 11.2002 26.4237 11.2002 27.9997C11.2002 28.2119 11.2845 28.4154 11.4345 28.5654C11.5845 28.7155 11.788 28.7997 12.0002 28.7997L16.8002 28.7997Z" fill="rgb(0,0,0)" fill-rule="nonzero" />
			<path id="Vector" d="M32.0004 19.9997C32.0004 20.2119 32.0848 20.4154 32.2347 20.5654C32.3848 20.7155 32.5883 20.7997 32.8004 20.7997L35.506 20.7997L32.0804 27.6421C31.9856 27.832 31.97 28.0518 32.0373 28.2532C32.1045 28.4544 32.249 28.6208 32.4388 28.7157C32.6288 28.8106 32.8485 28.8261 33.0499 28.7589C33.2512 28.6917 33.4176 28.5472 33.5124 28.3573L37.5124 20.3573C37.5732 20.2356 37.602 20.1004 37.5961 19.9645C37.59 19.8286 37.5495 19.6965 37.4783 19.5806C37.4069 19.4647 37.3073 19.369 37.1888 19.3022C37.0701 19.2356 36.9364 19.2003 36.8004 19.1997L32.8004 19.1997C32.5883 19.1997 32.3848 19.284 32.2347 19.434C32.0848 19.584 32.0004 19.7876 32.0004 19.9997Z" fill="rgb(0,0,0)" fill-rule="nonzero" />
			<path id="Vector" d="M23.2003 28.7998C23.4124 28.7998 23.616 28.7155 23.766 28.5654C23.916 28.4155 24.0003 28.2119 24.0003 27.9998L24.0003 26.3998L24.8003 26.3998C25.0124 26.3998 25.216 26.3155 25.366 26.1654C25.516 26.0155 25.6003 25.8119 25.6003 25.5998C25.6003 25.3876 25.516 25.1841 25.366 25.0341C25.216 24.884 25.0124 24.7998 24.8003 24.7998L24.0003 24.7998L24.0003 23.9998C24.0003 23.7876 23.916 23.5841 23.766 23.4341C23.616 23.284 23.4124 23.1998 23.2003 23.1998C22.9881 23.1998 22.7846 23.284 22.6346 23.4341C22.4845 23.5841 22.4003 23.7876 22.4003 23.9998L22.4003 24.7998L20.5795 24.7998L23.0947 20.3998C23.1498 20.3085 23.186 20.207 23.2013 20.1015C23.2168 19.9959 23.2108 19.8884 23.184 19.7852C23.1571 19.682 23.1099 19.5852 23.0451 19.5005C22.9803 19.4157 22.8992 19.3448 22.8066 19.2919C22.714 19.239 22.6117 19.2052 22.5059 19.1924C22.4 19.1795 22.2926 19.188 22.19 19.2173C22.0875 19.2465 21.9918 19.296 21.9088 19.3628C21.8256 19.4296 21.7566 19.5124 21.7059 19.6062L18.5059 25.2062C18.4372 25.3277 18.4016 25.4652 18.4024 25.6048C18.4033 25.7444 18.4406 25.8814 18.5109 26.0021C18.5811 26.1228 18.6817 26.223 18.8026 26.2927C18.9236 26.3625 19.0606 26.3995 19.2003 26.3998L22.4003 26.3998L22.4003 27.9998C22.4003 28.2119 22.4845 28.4155 22.6346 28.5654C22.7846 28.7155 22.9881 28.7998 23.2003 28.7998Z" fill="rgb(0,0,0)" fill-rule="nonzero" />
			<path id="Vector" d="M28.8241 19.0062L26.4241 28.6062C26.3728 28.812 26.4054 29.0297 26.5147 29.2115C26.6238 29.3934 26.8007 29.5243 27.0065 29.5758C27.0699 29.5915 27.1349 29.5995 27.2001 29.5998C27.3784 29.5995 27.5516 29.5398 27.692 29.4299C27.8325 29.32 27.9321 29.1664 27.9753 28.9934L30.3753 19.3934C30.4036 19.2905 30.4109 19.1831 30.3969 19.0775C30.3831 18.9718 30.3481 18.8698 30.2943 18.7778C30.2405 18.6858 30.1688 18.6055 30.0835 18.5416C29.9982 18.4776 29.9009 18.4314 29.7975 18.4056C29.694 18.3798 29.5864 18.375 29.4811 18.3913C29.3758 18.4077 29.2748 18.4449 29.184 18.5008C29.0932 18.5568 29.0145 18.6303 28.9526 18.7171C28.8907 18.8039 28.8476 18.9022 28.8241 19.0062Z" fill="rgb(0,0,0)" fill-rule="nonzero" />
			<path id="Vector" d="M37.8309 14.4435C37.6514 14.5564 37.5239 14.7358 37.4767 14.9426C37.4295 15.1493 37.4662 15.3664 37.5789 15.5459C39.5603 18.7194 40.3665 22.487 39.857 26.1934C39.3475 29.8997 37.5547 33.3102 34.7906 35.8313C32.0263 38.3524 28.4658 39.8246 24.7283 39.9917C20.9908 40.1588 17.3131 39.0102 14.3349 36.7459L16.0341 36.6403C16.2462 36.627 16.4445 36.5301 16.5851 36.3707C16.7258 36.2113 16.7973 36.0025 16.7841 35.7904C16.7708 35.5781 16.6739 35.38 16.5145 35.2393C16.355 35.0987 16.1462 35.027 15.9341 35.0403L12.2613 35.2691C12.0495 35.2825 11.8518 35.3795 11.7115 35.5386C11.5713 35.6978 11.4999 35.9062 11.5133 36.1179L11.7421 39.7899C11.7547 39.9934 11.8446 40.1844 11.9932 40.3238C12.1419 40.4633 12.3382 40.5408 12.5421 40.5403L12.5925 40.5403C12.6974 40.5338 12.8001 40.5067 12.8945 40.4605C12.9889 40.4144 13.0733 40.35 13.1428 40.2712C13.2124 40.1923 13.2657 40.1005 13.2997 40.0011C13.3338 39.9017 13.3479 39.7964 13.3413 39.6915L13.2301 37.9035C16.4925 40.4342 20.5412 41.7366 24.6673 41.5825C28.7933 41.4284 32.7335 39.8276 35.7981 37.0606C38.8627 34.2936 40.8561 30.5366 41.4292 26.4477C42.0025 22.3588 41.1189 18.1986 38.9333 14.6955C38.8205 14.5161 38.641 14.3886 38.4342 14.3414C38.2276 14.2941 38.0106 14.3309 37.8309 14.4435Z" fill="rgb(0,0,0)" fill-rule="nonzero" />
			<path id="Vector" d="M7.99968 24.0002C7.99785 21.0213 8.82821 18.1011 10.3972 15.5687C11.9662 13.0364 14.2113 10.9927 16.8795 9.66799C19.5478 8.34331 22.533 7.79032 25.4986 8.07137C28.4643 8.35242 31.2926 9.45633 33.6645 11.2586L31.9653 11.3643C31.8602 11.3674 31.7568 11.3915 31.661 11.4347C31.5653 11.4778 31.4789 11.5394 31.4069 11.6161C31.3349 11.6927 31.2786 11.7826 31.2415 11.8811C31.2043 11.9793 31.1869 12.084 31.1901 12.1891C31.1934 12.2941 31.2173 12.3975 31.2605 12.4933C31.3037 12.5892 31.3654 12.6755 31.4419 12.7474C31.5185 12.8195 31.6086 12.8757 31.7069 12.9128C31.8051 12.9501 31.9098 12.9675 32.0149 12.9643L32.0653 12.9643L35.7381 12.7355C35.9498 12.7221 36.1475 12.6252 36.2879 12.466C36.4281 12.3068 36.4994 12.0984 36.4861 11.8867L36.2573 8.21465C36.2523 8.10926 36.2263 8.00593 36.1807 7.91079C36.1351 7.81566 36.0709 7.73065 35.9918 7.66081C35.9127 7.59098 35.8203 7.53774 35.7202 7.50425C35.6202 7.47075 35.5145 7.4577 35.4093 7.46585C35.3043 7.47236 35.2017 7.4995 35.1073 7.54569C35.0129 7.59188 34.9286 7.65624 34.859 7.73506C34.7895 7.8139 34.7361 7.90566 34.702 8.0051C34.668 8.10455 34.6538 8.20974 34.6605 8.31465L34.7717 10.1026C31.5096 7.57302 27.4618 6.27129 23.3368 6.42535C19.2117 6.57939 15.2722 8.17939 12.208 10.9453C9.14369 13.7111 7.14984 17.4667 6.57545 21.5544C6.00105 25.6422 6.8827 29.8018 9.06607 33.305C9.13807 33.4199 9.23812 33.5146 9.35678 33.5804C9.47546 33.646 9.60886 33.6804 9.74448 33.6803C9.89466 33.6805 10.0418 33.6377 10.1685 33.5571C10.348 33.4443 10.4754 33.2647 10.5226 33.058C10.5699 32.8513 10.5331 32.6343 10.4205 32.4547C8.83446 29.9202 7.99541 26.99 7.99968 24.0002Z" fill="rgb(0,0,0)" fill-rule="nonzero" />
		</g>
	</g>
</svg>
